rajagopal_states
version=1
nRows=10
nColumns=23
inDegrees=yes

# SIMM Motion File Header:
name rajagopal_states
datacolumns 23
datarows 10
otherdata 1
range 0.000000 0.500000
endheader
time	/jointset/ground_pelvis/pelvis_tilt/value	/jointset/ground_pelvis/pelvis_tilt/speed	/jointset/ground_pelvis/pelvis_list/value	/jointset/ground_pelvis/pelvis_list/speed	/jointset/ground_pelvis/pelvis_rotation/value	/jointset/ground_pelvis/pelvis_rotation/speed	/jointset/ground_pelvis/pelvis_tx/value	/jointset/ground_pelvis/pelvis_tx/speed	/jointset/ground_pelvis/pelvis_ty/value	/jointset/ground_pelvis/pelvis_ty/speed	/jointset/ground_pelvis/pelvis_tz/value	/jointset/ground_pelvis/pelvis_tz/speed	/jointset/hip_r/hip_flexion_r/value	/jointset/hip_r/hip_flexion_r/speed	/jointset/hip_r/hip_adduction_r/value	/jointset/hip_r/hip_adduction_r/speed	/jointset/hip_r/hip_rotation_r/value	/jointset/hip_r/hip_rotation_r/speed	/jointset/walker_knee_r/knee_angle_r/value	/jointset/walker_knee_r/knee_angle_r/speed	/jointset/patellofemoral_r/knee_angle_r_beta/value	/jointset/patellofemoral_r/knee_angle_r_beta/speed
      0.00000000	      0.00000000	      0.00000000	      0.00000000	      0.00000000	      0.00000000	      0.00000000	      0.00000000	      0.00000000	      1.00000000	      0.00000000	      0.00000000	      0.00000000	     90.00000000	      0.00000000	     -0.00000007	      0.00000000	      0.00000000	      0.00000000	     90.00021046	      0.00000000	      1.57080000	      0.00000000
      0.01000000	     -0.00000000	      0.00000000	      0.00000000	      0.00000000	      0.00000000	     -0.00000000	      0.00000000	     -0.00000000	      1.00000000	     -0.00000000	      0.00000000	      0.00000000	     90.00000000	      0.00000000	     -0.00000007	     -0.00000000	      0.00000000	      0.00000000	     89.98004768	     -4.03214515	      1.57044809	     -0.07037421
      0.06000000	     -0.00000000	     -0.00000000	      0.00000000	      0.00000000	      0.00000000	      0.00000000	      0.00000000	      0.00000000	      1.00000000	     -0.00000000	     -0.00000000	     -0.00000000	     90.00000000	      0.00000000	     -0.00000007	      0.00000000	      0.00000000	      0.00000000	     89.27694403	    -24.01970484	      1.55817662	     -0.41922293
      0.14859415	      0.00000000	      0.00000000	      0.00000000	      0.00000000	      0.00000000	      0.00000000	      0.00000000	      0.00000000	      1.00000000	     -0.00000000	     -0.00000000	     -0.00000000	     90.00000000	      0.00000000	     -0.00000007	     -0.00000000	      0.00000000	      0.00000000	     85.64917324	    -57.18090398	      1.49486007	     -0.99799504
      0.23718829	      0.00000000	      0.00000000	      0.00000000	      0.00000000	      0.00000000	     -0.00000000	      0.00000000	      0.00000000	      1.00000000	     -0.00000000	     -0.00000000	      0.00000000	     90.00000000	      0.00000000	     -0.00000007	      0.00000000	      0.00000000	      0.00000000	     79.32458175	    -84.25787362	      1.38447513	     -1.47057732
      0.31124284	      0.00000000	      0.00000000	      0.00000000	      0.00000000	     -0.00000000	     -0.00000000	      0.00000000	      0.00000000	      1.00000000	      0.00000000	     -0.00000000	      0.00000000	     90.00000000	     -0.00000000	     -0.00000007	      0.00000000	      0.00000000	     -0.00000000	     72.46850110	    -99.70789037	      1.26481395	     -1.74023098
      0.36670320	      0.00000000	      0.00000000	      0.00000000	     -0.00000000	     -0.00000000	     -0.00000000	      0.00000000	      0.00000000	      1.00000000	      0.00000000	      0.00000000	      0.00000000	     90.00000000	     -0.00000000	     -0.00000007	      0.00000000	      0.00000000	      0.00000000	     66.73079978	   -106.52103370	      1.16467217	     -1.85914276
      0.42216355	      0.00000000	      0.00000000	      0.00000000	     -0.00000000	     -0.00000000	     -0.00000000	      0.00000000	     -0.00000000	      1.00000000	      0.00000000	      0.00000000	      0.00000000	     90.00000000	     -0.00000000	     -0.00000007	      0.00000000	      0.00000000	      0.00000000	     60.73009567	   -109.16993171	      1.05994012	     -1.90537475
      0.48466938	      0.00000000	      0.00000000	      0.00000000	      0.00000000	     -0.00000000	     -0.00000000	      0.00000000	     -0.00000000	      1.00000000	      0.00000000	      0.00000000	      0.00000000	     90.00000000	     -0.00000000	     -0.00000007	      0.00000000	      0.00000000	      0.00000000	     53.94805021	   -106.80005477	      0.94157110	     -1.86401260
      0.50000000	      0.00000000	      0.00000000	      0.00000000	      0.00000000	     -0.00000000	     -0.00000000	      0.00000000	     -0.00000000	      1.00000000	      0.00000000	      0.00000000	      0.00000000	     90.00000000	     -0.00000000	     -0.00000007	      0.00000000	      0.00000000	      0.00000000	     52.32238018	   -105.21066788	      0.91319781	     -1.83627256
